#Comment line ignore any data following # character 
#Hierarchical Translation and Rotation (.htr) file 
[Header]	
#Header keywords are followed by a single value 
FileType HTR		#Single word string
DataType HTRS		#Translation followed by rotation and scale data
FileVersion 1		#integer
NumSegments 84		#integer
NumFrames 2		#integer
DataFrameRate 30		#integer, data frame rate in this file
EulerRotationOrder ZYX
CalibrationUnits mm
RotationUnits Degrees
GlobalAxisofGravity Y
BoneLengthAxis Y
ScaleFactor 1.00
[SegmentNames&Hierarchy]
#CHILD	PARENT
MASTER GLOBAL
root MASTER
chest root
L_mid_tent01 root
R_mid_tent01 root
spine01 root
Bip01_Neck chest
L_humerus chest
R_humerus chest
weapon_bone chest
Bip01_Head Bip01_Neck
eye_left_bone Bip01_Head
eye_right_bone Bip01_Head
L_forearm L_humerus
L_front_hand L_forearm
L_weapon_bone L_forearm
L_front_hand01_01 L_front_hand
L_front_hand02_01 L_front_hand
L_front_hand03_01 L_front_hand
L_front_hand01_02 L_front_hand01_01
L_front_hand02_02 L_front_hand02_01
L_front_hand03_02 L_front_hand03_01
R_forearm R_humerus
R_front_hand R_forearm
R_weapon_bone R_forearm
R_front_hand01_01 R_front_hand
R_front_hand02_01 R_front_hand
R_front_hand03_01 R_front_hand
R_front_hand01_02 R_front_hand01_01
R_front_hand02_02 R_front_hand02_01
R_front_hand03_02 R_front_hand03_01
null_rope01_connect L_mid_tent01
Rope1_Seg01 null_rope01_connect
Rope1_Seg02 Rope1_Seg01
Rope1_Seg03 Rope1_Seg02
Rope1_Seg04 Rope1_Seg03
Rope1_Seg05 Rope1_Seg04
Rope1_Seg06 Rope1_Seg05
Rope1_Seg07 Rope1_Seg06
Rope1_Seg09 Rope1_Seg07
L_mid_hand01 Rope1_Seg09
L_mid_hand02 Rope1_Seg09
L_mid_hand03 Rope1_Seg09
null_rope02_connect R_mid_tent01
Rope2_Seg01 null_rope02_connect
Rope2_Seg02 Rope2_Seg01
Rope2_Seg03 Rope2_Seg02
Rope2_Seg04 Rope2_Seg03
Rope2_Seg05 Rope2_Seg04
Rope2_Seg06 Rope2_Seg05
Rope2_Seg07 Rope2_Seg06
Rope2_Seg09 Rope2_Seg07
R_mid_hand01 Rope2_Seg09
R_mid_hand02 Rope2_Seg09
R_mid_hand03 Rope2_Seg09
spine02 spine01
spine03 spine02
pelvis spine03
null_rope03_connect pelvis
null_rope04_connect pelvis
Rope3_Seg01 null_rope03_connect
Rope3_Seg02 Rope3_Seg01
Rope3_Seg03 Rope3_Seg02
Rope3_Seg04 Rope3_Seg03
Rope3_Seg05 Rope3_Seg04
Rope3_Seg06 Rope3_Seg05
Rope3_Seg07 Rope3_Seg06
Rope3_Seg08 Rope3_Seg07
Rope3_Seg09 Rope3_Seg08
R_rear_hand01 Rope3_Seg09
R_rear_hand02 Rope3_Seg09
R_rear_hand03 Rope3_Seg09
Rope4_Seg01 null_rope04_connect
Rope4_Seg02 Rope4_Seg01
Rope4_Seg03 Rope4_Seg02
Rope4_Seg04 Rope4_Seg03
Rope4_Seg05 Rope4_Seg04
Rope4_Seg06 Rope4_Seg05
Rope4_Seg07 Rope4_Seg06
Rope4_Seg08 Rope4_Seg07
Rope4_Seg09 Rope4_Seg08
L_rear_hand01 Rope4_Seg09
L_rear_hand02 Rope4_Seg09
L_rear_hand03 Rope4_Seg09
[BasePosition]
#SegmentName Tx, Ty, Tz, Rx, Ry, Rz, BoneLength
MASTER 0.000000 0.000000 0.000000 -90.000000 0.000000 0.000000 10.000000 
root 0.000000 0.000000 0.000000 0.000000 0.000000 0.000000 10.000000 
chest 0.000000 0.000000 0.000000 0.000000 0.000000 0.000000 10.000000 
L_mid_tent01 0.000000 0.000000 0.000000 0.000000 0.000000 0.000000 10.000000 
R_mid_tent01 0.000000 0.000000 0.000000 0.000000 0.000000 0.000000 10.000000 
spine01 0.000000 0.000000 0.000000 0.000000 0.000000 0.000000 10.000000 
Bip01_Neck 0.000000 0.000000 0.000000 0.000000 0.000000 0.000000 10.000000 
L_humerus 0.000000 0.000000 0.000000 0.000000 0.000000 0.000000 10.000000 
R_humerus 0.000000 0.000000 0.000000 0.000000 0.000000 0.000000 10.000000 
weapon_bone 0.000000 0.000000 0.000000 0.000000 0.000000 0.000000 10.000000 
Bip01_Head 0.000000 0.000000 0.000000 0.000000 0.000000 0.000000 10.000000 
eye_left_bone 0.000000 0.000000 0.000000 0.000000 0.000000 0.000000 10.000000 
eye_right_bone 0.000000 0.000000 0.000000 0.000000 0.000000 0.000000 10.000000 
L_forearm 0.000000 0.000000 0.000000 0.000000 0.000000 0.000000 10.000000 
L_front_hand 0.000000 0.000000 0.000000 0.000000 0.000000 0.000000 10.000000 
L_weapon_bone 0.000000 0.000000 0.000000 0.000000 0.000000 0.000000 10.000000 
L_front_hand01_01 0.000000 0.000000 0.000000 0.000000 0.000000 0.000000 10.000000 
L_front_hand02_01 0.000000 0.000000 0.000000 0.000000 0.000000 0.000000 10.000000 
L_front_hand03_01 0.000000 0.000000 0.000000 0.000000 0.000000 0.000000 10.000000 
L_front_hand01_02 0.000000 0.000000 0.000000 0.000000 0.000000 0.000000 10.000000 
L_front_hand02_02 0.000000 0.000000 0.000000 0.000000 0.000000 0.000000 10.000000 
L_front_hand03_02 0.000000 0.000000 0.000000 0.000000 0.000000 0.000000 10.000000 
R_forearm 0.000000 0.000000 0.000000 0.000000 0.000000 0.000000 10.000000 
R_front_hand 0.000000 0.000000 0.000000 0.000000 0.000000 0.000000 10.000000 
R_weapon_bone 0.000000 0.000000 0.000000 0.000000 0.000000 0.000000 10.000000 
R_front_hand01_01 0.000000 0.000000 0.000000 0.000000 0.000000 0.000000 10.000000 
R_front_hand02_01 0.000000 0.000000 0.000000 0.000000 0.000000 0.000000 10.000000 
R_front_hand03_01 0.000000 0.000000 0.000000 0.000000 0.000000 0.000000 10.000000 
R_front_hand01_02 0.000000 0.000000 0.000000 0.000000 0.000000 0.000000 10.000000 
R_front_hand02_02 0.000000 0.000000 0.000000 0.000000 0.000000 0.000000 10.000000 
R_front_hand03_02 0.000000 0.000000 0.000000 0.000000 0.000000 0.000000 10.000000 
null_rope01_connect 0.000000 0.000000 0.000000 0.000000 0.000000 0.000000 10.000000 
Rope1_Seg01 0.000000 0.000000 0.000000 0.000000 0.000000 0.000000 10.000000 
Rope1_Seg02 0.000000 0.000000 0.000000 0.000000 0.000000 0.000000 10.000000 
Rope1_Seg03 0.000000 0.000000 0.000000 0.000000 0.000000 0.000000 10.000000 
Rope1_Seg04 0.000000 0.000000 0.000000 0.000000 0.000000 0.000000 10.000000 
Rope1_Seg05 0.000000 0.000000 0.000000 0.000000 0.000000 0.000000 10.000000 
Rope1_Seg06 0.000000 0.000000 0.000000 0.000000 0.000000 0.000000 10.000000 
Rope1_Seg07 0.000000 0.000000 0.000000 0.000000 0.000000 0.000000 10.000000 
Rope1_Seg09 0.000000 0.000000 0.000000 0.000000 0.000000 0.000000 10.000000 
L_mid_hand01 0.000000 0.000000 0.000000 0.000000 0.000000 0.000000 10.000000 
L_mid_hand02 0.000000 0.000000 0.000000 0.000000 0.000000 0.000000 10.000000 
L_mid_hand03 0.000000 0.000000 0.000000 0.000000 0.000000 0.000000 10.000000 
null_rope02_connect 0.000000 0.000000 0.000000 0.000000 0.000000 0.000000 10.000000 
Rope2_Seg01 0.000000 0.000000 0.000000 0.000000 0.000000 0.000000 10.000000 
Rope2_Seg02 0.000000 0.000000 0.000000 0.000000 0.000000 0.000000 10.000000 
Rope2_Seg03 0.000000 0.000000 0.000000 0.000000 0.000000 0.000000 10.000000 
Rope2_Seg04 0.000000 0.000000 0.000000 0.000000 0.000000 0.000000 10.000000 
Rope2_Seg05 0.000000 0.000000 0.000000 0.000000 0.000000 0.000000 10.000000 
Rope2_Seg06 0.000000 0.000000 0.000000 0.000000 0.000000 0.000000 10.000000 
Rope2_Seg07 0.000000 0.000000 0.000000 0.000000 0.000000 0.000000 10.000000 
Rope2_Seg09 0.000000 0.000000 0.000000 0.000000 0.000000 0.000000 10.000000 
R_mid_hand01 0.000000 0.000000 0.000000 0.000000 0.000000 0.000000 10.000000 
R_mid_hand02 0.000000 0.000000 0.000000 0.000000 0.000000 0.000000 10.000000 
R_mid_hand03 0.000000 0.000000 0.000000 0.000000 0.000000 0.000000 10.000000 
spine02 0.000000 0.000000 0.000000 0.000000 0.000000 0.000000 10.000000 
spine03 0.000000 0.000000 0.000000 0.000000 0.000000 0.000000 10.000000 
pelvis 0.000000 0.000000 0.000000 0.000000 0.000000 0.000000 10.000000 
null_rope03_connect 0.000000 0.000000 0.000000 0.000000 0.000000 0.000000 10.000000 
null_rope04_connect 0.000000 0.000000 0.000000 0.000000 0.000000 0.000000 10.000000 
Rope3_Seg01 0.000000 0.000000 0.000000 0.000000 0.000000 0.000000 10.000000 
Rope3_Seg02 0.000000 0.000000 0.000000 0.000000 0.000000 0.000000 10.000000 
Rope3_Seg03 0.000000 0.000000 0.000000 0.000000 0.000000 0.000000 10.000000 
Rope3_Seg04 0.000000 0.000000 0.000000 0.000000 0.000000 0.000000 10.000000 
Rope3_Seg05 0.000000 0.000000 0.000000 0.000000 0.000000 0.000000 10.000000 
Rope3_Seg06 0.000000 0.000000 0.000000 0.000000 0.000000 0.000000 10.000000 
Rope3_Seg07 0.000000 0.000000 0.000000 0.000000 0.000000 0.000000 10.000000 
Rope3_Seg08 0.000000 0.000000 0.000000 0.000000 0.000000 0.000000 10.000000 
Rope3_Seg09 0.000000 0.000000 0.000000 0.000000 0.000000 0.000000 10.000000 
R_rear_hand01 0.000000 0.000000 0.000000 0.000000 0.000000 0.000000 10.000000 
R_rear_hand02 0.000000 0.000000 0.000000 0.000000 0.000000 0.000000 10.000000 
R_rear_hand03 0.000000 0.000000 0.000000 0.000000 0.000000 0.000000 10.000000 
Rope4_Seg01 0.000000 0.000000 0.000000 0.000000 0.000000 0.000000 10.000000 
Rope4_Seg02 0.000000 0.000000 0.000000 0.000000 0.000000 0.000000 10.000000 
Rope4_Seg03 0.000000 0.000000 0.000000 0.000000 0.000000 0.000000 10.000000 
Rope4_Seg04 0.000000 0.000000 0.000000 0.000000 0.000000 0.000000 10.000000 
Rope4_Seg05 0.000000 0.000000 0.000000 0.000000 0.000000 0.000000 10.000000 
Rope4_Seg06 0.000000 0.000000 0.000000 0.000000 0.000000 0.000000 10.000000 
Rope4_Seg07 0.000000 0.000000 0.000000 0.000000 0.000000 0.000000 10.000000 
Rope4_Seg08 0.000000 0.000000 0.000000 0.000000 0.000000 0.000000 10.000000 
Rope4_Seg09 0.000000 0.000000 0.000000 0.000000 0.000000 0.000000 10.000000 
L_rear_hand01 0.000000 0.000000 0.000000 0.000000 0.000000 0.000000 10.000000 
L_rear_hand02 0.000000 0.000000 0.000000 0.000000 0.000000 0.000000 10.000000 
L_rear_hand03 0.000000 0.000000 0.000000 0.000000 0.000000 0.000000 10.000000 
#Beginning of Data. Separated by tabs
#Fr	Tx	Ty	Tz	Rx	Ry	Rz	SF
[MASTER]
36 -1197.934082 -5852.790527 315.080414 0.000000 -0.002347 -90.000000 5982.431152
37 -1067.567139 -6009.816406 255.977386 0.000000 -0.002347 -90.000000 6109.264648
[root]
36 -72.614952 11.449411 1287.467651 -88.703506 -21.242737 -166.621902 1289.564575
37 -69.350716 13.133697 1358.311646 -81.246696 -22.996954 -166.070541 1360.144287
[chest]
36 -84.512650 -34.090519 0.000000 -18.118044 4.203728 -178.602402 91.129311
37 -84.512650 -34.090519 0.000000 -12.576099 6.194197 -176.024673 91.129311
[L_mid_tent01]
36 27.299335 22.179279 -249.918716 -6.728384 -1.979794 -22.827757 252.381729
37 27.299341 22.179283 -249.918716 -7.985867 -3.602622 -24.379675 252.381729
[R_mid_tent01]
36 23.228794 24.509907 226.238495 164.633408 -8.370829 78.141426 228.744751
37 23.228794 24.509907 226.238495 165.508301 -2.580362 78.739594 228.744751
[spine01]
36 -0.361383 -0.195265 0.000000 0.001951 0.001305 22.438297 0.410763
37 -0.361383 -0.195265 0.000000 0.001951 0.001306 22.400764 0.410763
[Bip01_Neck]
36 165.484543 71.581718 0.000119 176.643677 -1.657967 43.431911 180.302734
37 165.484543 71.581718 0.000119 176.643677 -1.657967 43.431911 180.302734
[L_humerus]
36 -13.983130 -135.272980 -120.471481 101.444939 46.790554 -174.505768 181.680161
37 -13.983130 -135.272980 -120.471481 94.886925 48.455090 178.950500 181.680161
[R_humerus]
36 -13.983309 -135.273102 125.287651 -172.966385 -64.879745 -91.914513 184.909012
37 -13.983309 -135.273102 125.287651 -173.050720 -69.873535 -91.883156 184.909012
[weapon_bone]
36 235.964890 -300.705902 0.000000 0.000000 -89.951546 -128.212341 382.234833
37 235.964890 -300.705902 0.000000 0.000000 -89.951546 -128.212341 382.234833
[Bip01_Head]
36 213.427216 185.763702 11.156318 32.117035 6.150144 -43.831886 283.167450
37 213.433136 185.747253 11.368904 25.772839 6.151496 -43.833462 283.169556
[eye_left_bone]
36 -24.626970 125.451866 -64.772606 0.000000 -90.000000 -99.840431 143.318359
37 -24.626970 125.451866 -64.772606 0.000000 -90.000000 -99.840431 143.318359
[eye_right_bone]
36 -24.626970 125.451866 64.327362 0.000000 -89.965736 80.156380 143.117676
37 -24.626970 125.451866 64.327362 0.000000 -89.965736 80.156380 143.117676
[L_forearm]
36 322.776093 0.000000 -0.000119 0.000412 -0.002311 -110.206383 322.776093
37 322.776093 0.000000 -0.000119 0.000410 -0.002311 -110.126259 322.776093
[L_front_hand]
36 241.149185 -0.042021 -3.300071 -178.667953 -1.835447 -27.422350 241.171753
37 241.149185 -0.042021 -3.300071 -178.667953 -1.835447 -27.422350 241.171753
[L_weapon_bone]
36 156.183838 0.000000 0.000000 0.000014 0.000007 0.000001 156.183838
37 156.183838 0.000000 0.000000 0.000014 0.000007 0.000001 156.183838
[L_front_hand01_01]
36 86.095154 20.947098 -0.655860 -0.366594 -0.477154 75.385574 88.609184
37 86.095154 20.947098 -0.655860 -0.366594 -0.477154 75.385574 88.609184
[L_front_hand02_01]
36 86.935165 -11.437475 24.513514 154.399811 -59.883842 -61.369587 91.046425
37 86.935165 -11.437475 24.513514 154.399811 -59.883842 -61.369587 91.046425
[L_front_hand03_01]
36 86.637497 -14.123976 -20.424902 -153.913864 58.118130 -62.702873 90.126129
37 86.637497 -14.123976 -20.424902 -153.913864 58.118130 -62.702873 90.126129
[L_front_hand01_02]
36 71.020905 -0.000179 0.000030 0.000334 -0.002323 -106.374191 71.020905
37 71.020905 -0.000179 0.000030 0.000334 -0.002323 -106.374878 71.020905
[L_front_hand02_02]
36 71.020927 -0.000119 0.000060 0.000334 -0.002323 -106.374191 71.020927
37 71.020927 -0.000119 0.000060 0.000334 -0.002323 -106.374878 71.020927
[L_front_hand03_02]
36 71.020905 -0.000060 0.000060 0.000334 -0.002323 -106.374191 71.020905
37 71.020905 -0.000060 0.000060 0.000334 -0.002323 -106.374878 71.020905
[R_forearm]
36 322.776428 -0.000060 0.000030 0.201647 0.066559 -108.857941 322.776428
37 322.776428 -0.000060 0.000030 0.201694 0.066415 -108.776627 322.776428
[R_front_hand]
36 238.847015 -0.006795 2.210259 -2.635298 -10.645461 -26.312506 238.857239
37 238.847015 -0.006795 2.210259 -2.635298 -10.645461 -26.312506 238.857239
[R_weapon_bone]
36 155.664093 0.002503 -0.000030 0.003487 0.001180 -90.988930 155.664078
37 155.664093 0.002503 -0.000030 0.003487 0.001180 -90.988930 155.664078
[R_front_hand01_01]
36 87.624611 14.231146 22.918642 -154.633499 -59.950619 61.746044 91.683487
37 87.624611 14.231146 22.918642 -154.633499 -59.950619 61.746044 91.683487
[R_front_hand02_01]
36 89.356956 14.367283 -19.491137 154.602661 58.302849 63.744389 92.579636
37 89.356956 14.367283 -19.491137 154.602661 58.302849 63.744389 92.579636
[R_front_hand03_01]
36 87.286232 -22.307278 -0.143439 0.162155 -0.423168 -75.767921 90.091743
37 87.286232 -22.307278 -0.143439 0.162155 -0.423168 -75.767921 90.091743
[R_front_hand01_02]
36 71.020905 0.000060 0.000119 0.002323 -0.000334 106.381714 71.020905
37 71.020905 0.000060 0.000119 0.002323 -0.000334 106.381714 71.020905
[R_front_hand02_02]
36 71.020844 -0.000030 -0.000119 0.002323 -0.000334 106.381714 71.020836
37 71.020844 -0.000030 -0.000119 0.002323 -0.000334 106.381714 71.020836
[R_front_hand03_02]
36 71.020905 0.000000 0.000030 0.002323 -0.000334 106.381714 71.020905
37 71.020905 0.000000 0.000030 0.002323 -0.000334 106.381714 71.020905
[null_rope01_connect]
36 328.732483 0.000000 -0.000238 -115.454323 78.317093 -160.692627 328.732483
37 328.732483 0.000000 -0.000238 -89.920822 76.109497 -132.299973 328.732483
[Rope1_Seg01]
36 0.000000 0.000000 0.000000 -5.526544 -14.941169 113.821083 0.000000
37 0.000000 0.000000 0.000000 -5.615081 -9.911345 109.903625 0.000000
[Rope1_Seg02]
36 139.999863 -0.000179 0.000000 -0.402606 -1.200917 2.696739 139.999863
37 139.999863 -0.000179 0.000000 0.092232 -3.405497 3.279804 139.999863
[Rope1_Seg03]
36 139.999924 0.000060 -0.000060 1.213850 -4.375316 -0.118953 139.999924
37 139.999924 0.000060 -0.000060 2.002419 -6.394162 0.097875 139.999924
[Rope1_Seg04]
36 139.999924 -0.000060 -0.000119 3.683789 -9.834690 -5.019973 139.999924
37 139.999924 -0.000060 -0.000119 5.204089 -11.906568 -6.317814 139.999924
[Rope1_Seg05]
36 139.999832 0.000119 -0.000060 -3.882922 17.187958 15.568052 139.999832
37 139.999832 0.000119 -0.000060 -3.885521 15.807959 19.523132 139.999832
[Rope1_Seg06]
36 139.999954 0.000119 -0.000060 2.279874 33.357811 40.208122 139.999954
37 139.999954 0.000119 -0.000060 8.589930 30.876266 49.330166 139.999954
[Rope1_Seg07]
36 139.999985 0.000060 0.000000 -0.459883 8.127653 11.984869 139.999985
37 139.999985 0.000060 0.000000 1.466627 7.049606 11.852142 139.999985
[Rope1_Seg09]
36 121.602913 0.000119 -0.000089 -89.793175 -1.359789 0.847147 121.602913
37 121.602913 0.000119 -0.000089 -89.793175 -1.359789 0.847147 121.602913
[L_mid_hand01]
36 103.859421 1.038730 8.195221 130.544373 -67.584534 -38.866943 104.187431
37 103.859421 1.038730 8.195221 130.544373 -67.584534 -38.866943 104.187431
[L_mid_hand02]
36 105.572853 -4.139662 -10.864139 -168.923172 43.409309 -73.498886 106.211075
37 105.572853 -4.139662 -10.864139 -168.923172 43.409309 -73.498894 106.211075
[L_mid_hand03]
36 104.641464 17.579376 -3.913581 -6.012627 17.808174 74.893669 106.179977
37 104.641464 17.579376 -3.913581 -6.012625 17.808174 74.893669 106.179977
[null_rope02_connect]
36 328.732849 0.000179 -0.000119 89.221283 -58.772079 -123.699905 328.732849
37 328.732849 0.000179 -0.000119 93.446152 -59.227951 -128.935135 328.732849
[Rope2_Seg01]
36 -0.000050 -0.000057 0.000000 12.651517 -12.907436 143.952744 0.000076
37 -0.000049 -0.000053 0.000000 7.296564 -21.214630 149.239349 0.000072
[Rope2_Seg02]
36 139.999741 -0.000060 -0.000119 7.187074 4.080481 -5.987894 139.999756
37 139.999741 -0.000060 -0.000119 3.523136 3.980453 -4.868070 139.999756
[Rope2_Seg03]
36 140.000107 0.000030 0.000000 20.941368 5.243015 -10.379958 140.000107
37 140.000107 0.000030 0.000000 9.229717 6.071522 -8.525349 140.000107
[Rope2_Seg04]
36 139.999802 0.000000 -0.000060 68.817276 2.021587 -23.508175 139.999802
37 139.999802 0.000000 -0.000060 47.533298 9.202224 -19.510668 139.999802
[Rope2_Seg05]
36 139.999985 -0.000060 0.000119 27.753553 -22.397797 -11.680679 139.999985
37 139.999985 -0.000060 0.000119 66.434769 -13.237219 -33.065170 139.999985
[Rope2_Seg06]
36 139.999893 -0.000030 -0.000119 0.584626 1.095448 -1.105620 139.999893
37 139.999893 -0.000030 -0.000119 3.699134 -6.746710 -0.771623 139.999893
[Rope2_Seg07]
36 139.999893 0.000060 -0.000060 -0.171996 2.858903 -1.209779 139.999893
37 139.999893 0.000060 -0.000060 -3.317631 7.264176 -0.367639 139.999893
[Rope2_Seg09]
36 121.338966 0.000089 -0.000060 33.793236 -1.359788 -0.847141 121.338966
37 121.338966 0.000089 -0.000060 33.793236 -1.359788 -0.847141 121.338966
[R_mid_hand01]
36 104.680779 11.144459 -10.335981 -16.212063 45.237240 70.462852 105.778534
37 104.680779 11.144459 -10.335981 -16.212063 45.237247 70.462852 105.778534
[R_mid_hand02]
36 104.070427 2.443552 8.231699 49.067368 -67.749771 39.286453 104.424065
37 104.070427 2.443552 8.231699 49.067368 -67.749771 39.286453 104.424065
[R_mid_hand03]
36 106.028137 -11.221827 -5.996406 -177.101105 15.551026 -76.585571 106.788818
37 106.028137 -11.221827 -5.996406 -177.101105 15.551026 -76.585571 106.788818
[spine02]
36 129.756927 0.001550 0.000119 0.437498 -4.036467 -14.047800 129.756927
37 129.756927 0.001550 0.000119 0.429104 -4.037427 -13.931568 129.756927
[spine03]
36 78.614006 0.081738 -4.898995 1.944629 3.808602 17.181376 78.766541
37 78.614006 0.081738 -4.898994 1.939602 3.810770 17.109499 78.766541
[pelvis]
36 169.435242 0.051022 0.000000 -47.766037 2.822658 -3.921077 169.435257
37 169.435242 0.051022 0.000000 -45.105797 3.123216 -2.752637 169.435257
[null_rope03_connect]
36 -1.257226 -2.466202 137.391083 -168.744583 43.454521 105.421707 137.418976
37 -1.257226 -2.466202 137.391083 -161.042297 51.713196 113.566025 137.418976
[null_rope04_connect]
36 -1.259640 -2.480268 -137.844437 -168.744583 43.454521 105.421707 137.872513
37 -1.259640 -2.480268 -137.844437 -161.042297 51.713196 113.566025 137.872513
[Rope3_Seg01]
36 0.000000 0.000000 0.000000 -130.570526 -1.316438 113.611008 0.000000
37 0.000000 0.000000 0.000000 -130.508606 -1.604995 116.868828 0.000000
[Rope3_Seg02]
36 139.999924 -0.000119 0.000060 0.240873 -1.485189 -0.901665 139.999924
37 139.999924 -0.000119 0.000060 0.390702 -1.875108 -0.801108 139.999924
[Rope3_Seg03]
36 139.999924 -0.000119 0.000119 0.660786 -3.526891 -1.478413 139.999924
37 139.999924 -0.000119 0.000119 0.851340 -3.868253 -1.858162 139.999924
[Rope3_Seg04]
36 139.999924 0.000119 0.000000 0.663771 -3.583346 -2.023217 139.999924
37 139.999924 0.000119 0.000000 1.125909 -4.262120 -1.614178 139.999924
[Rope3_Seg05]
36 139.999924 -0.000238 0.000060 -1.971422 9.937505 1.175816 139.999924
37 139.999924 -0.000238 0.000060 -0.819723 6.820828 4.184982 139.999924
[Rope3_Seg06]
36 139.999893 -0.000119 -0.000060 -0.041883 2.925054 0.426059 139.999893
37 139.999893 -0.000119 -0.000060 0.207920 1.780143 1.177180 139.999893
[Rope3_Seg07]
36 139.999771 0.000060 -0.000119 0.300697 1.455268 0.178590 139.999771
37 139.999771 0.000060 -0.000119 0.407631 0.953925 0.643075 139.999771
[Rope3_Seg08]
36 139.999985 -0.000060 0.000000 0.422791 0.851969 0.098776 139.999985
37 139.999985 -0.000060 0.000000 0.478301 0.563918 0.374948 139.999985
[Rope3_Seg09]
36 90.185997 -0.000179 -0.000060 89.793228 -1.359877 -0.847183 90.185997
37 90.185997 -0.000179 -0.000060 89.793228 -1.359877 -0.847183 90.185997
[R_rear_hand01]
36 103.366196 -6.073594 -10.757982 -177.714203 24.565960 -73.910950 104.101845
37 103.366196 -6.073594 -10.757982 -177.714203 24.565960 -73.910950 104.101845
[R_rear_hand02]
36 100.509819 12.039542 -7.992327 -12.874829 36.868488 72.167213 101.543350
37 100.509819 12.039542 -7.992327 -12.874829 36.868488 72.167213 101.543350
[R_rear_hand03]
36 101.539970 5.215704 5.435467 71.484596 -71.816643 21.513828 101.819031
37 101.539970 5.215704 5.435467 71.484581 -71.816628 21.513813 101.819031
[Rope4_Seg01]
36 0.000010 0.000011 -0.000046 41.178429 -30.270859 97.267754 0.000048
37 0.000010 0.000011 -0.000043 38.015770 -31.154371 102.528839 0.000045
[Rope4_Seg02]
36 139.999985 0.000060 0.000119 4.958261 30.057341 10.373861 139.999985
37 139.999985 0.000060 0.000119 3.794160 26.445633 10.618822 139.999985
[Rope4_Seg03]
36 139.999924 0.000000 -0.000238 8.590300 20.702175 3.912858 139.999924
37 139.999924 0.000000 -0.000238 5.677181 19.481989 5.887016 139.999924
[Rope4_Seg04]
36 139.999985 0.000000 0.000119 -3.598613 -1.101439 1.906833 139.999985
37 139.999985 0.000000 0.000119 -0.837240 0.834543 0.945201 139.999985
[Rope4_Seg05]
36 139.999802 -0.000060 -0.000119 -9.516638 -13.968888 2.435132 139.999802
37 139.999802 -0.000060 -0.000119 -5.490873 -13.154908 -0.959671 139.999802
[Rope4_Seg06]
36 139.999924 0.000000 0.000060 -3.464071 -9.486726 0.254437 139.999924
37 139.999924 0.000000 0.000060 -2.381242 -13.192514 -2.347454 139.999924
[Rope4_Seg07]
36 139.999802 0.000000 0.000000 -1.400550 -5.326877 0.022256 139.999802
37 139.999802 0.000000 0.000000 -0.761096 -7.134980 -1.437543 139.999802
[Rope4_Seg08]
36 139.999924 0.000000 0.000119 -2.272338 -3.477815 -0.072864 139.999924
37 139.999924 0.000000 0.000119 -1.891464 -4.750437 -1.023878 139.999924
[Rope4_Seg09]
36 90.185791 0.000060 0.000060 -135.617828 2.228885 0.850567 90.185791
37 90.185791 0.000060 0.000060 -135.617828 2.228885 0.850567 90.185791
[L_rear_hand01]
36 101.696655 -8.392275 -7.654577 -12.874827 -36.868492 107.832764 102.329041
37 101.696655 -8.392275 -7.654577 -12.874829 -36.868488 107.832764 102.329041
[L_rear_hand02]
36 102.726799 -1.568258 5.773216 71.484581 71.816643 158.486160 102.900848
37 102.726799 -1.568258 5.773216 71.484581 71.816628 158.486160 102.900848
[L_rear_hand03]
36 104.552910 9.721220 -10.420293 -177.714203 -24.565960 -106.089035 105.519653
37 104.552910 9.721220 -10.420293 -177.714203 -24.565960 -106.089035 105.519653
